<?xml version="1.0" standalone="no"?>
<!DOCTYPE svg PUBLIC "-//W3C//DTD SVG 20010904//EN"
 "http://www.w3.org/TR/2001/REC-SVG-20010904/DTD/svg10.dtd">
<svg version="1.0" xmlns="http://www.w3.org/2000/svg"
 width="1280.000000pt" height="660.000000pt" viewBox="0 0 1280.000000 660.000000"
 preserveAspectRatio="xMidYMid meet">
<metadata>
Created by potrace 1.15, written by Peter Selinger 2001-2017
</metadata>
<g transform="translate(0.000000,660.000000) scale(0.100000,-0.100000)"
fill="#000000" stroke="none">
<path d="M10445 6585 c-16 -7 -61 -16 -100 -20 -38 -4 -88 -11 -110 -17 -44
-12 -49 -13 -155 -22 -41 -4 -109 -17 -150 -29 -67 -20 -81 -28 -130 -81 -31
-33 -105 -92 -167 -133 -118 -77 -154 -118 -55 -63 31 18 112 68 180 111 67
43 122 75 122 71 0 -9 -114 -96 -165 -127 -16 -10 -51 -39 -76 -64 -25 -25
-59 -56 -75 -69 l-29 -22 30 6 30 6 -30 -20 c-16 -10 -60 -36 -97 -56 -37 -20
-70 -41 -73 -46 -12 -19 22 -9 68 20 26 16 66 39 90 51 66 33 307 190 307 200
0 14 -9 11 -58 -23 -121 -82 -119 -81 -97 -38 8 16 46 49 88 76 39 26 109 75
154 111 68 52 86 62 101 54 14 -7 25 -6 41 5 12 9 24 14 27 11 6 -6 -102 -117
-141 -145 -17 -12 -24 -21 -15 -21 8 -1 48 24 88 54 70 53 92 60 92 31 0 -29
-256 -233 -392 -313 -57 -33 -73 -53 -44 -53 8 0 18 4 21 10 8 13 84 56 115
65 l25 7 -24 -26 c-31 -33 -21 -33 35 0 l44 26 -1 -24 c0 -24 -5 -27 -269
-192 -47 -29 -145 -89 -218 -132 -73 -43 -165 -106 -205 -138 -40 -32 -114
-79 -164 -104 -51 -25 -95 -52 -98 -61 -3 -9 -62 -45 -132 -80 -76 -38 -121
-66 -111 -69 20 -4 347 160 364 183 6 8 13 12 16 10 6 -6 156 66 268 128 35
20 68 33 73 30 9 -5 -59 -51 -122 -81 -21 -11 -56 -34 -78 -51 -21 -18 -96
-59 -168 -93 -71 -33 -136 -65 -143 -71 -29 -23 1 -15 103 28 126 52 123 34
-5 -35 -44 -24 -86 -50 -93 -58 -6 -9 33 8 88 38 175 94 193 102 212 97 15 -3
13 -6 -10 -15 -15 -7 -54 -29 -85 -50 -61 -41 -220 -122 -240 -122 -15 0 -15
13 0 28 19 19 4 15 -107 -34 -117 -51 -143 -78 -37 -38 84 32 95 33 100 12 2
-12 -25 -31 -103 -73 -117 -63 -138 -88 -26 -31 67 34 111 45 111 29 -1 -11
-184 -114 -306 -172 -187 -90 -342 -190 -328 -212 6 -11 300 136 307 153 3 9
7 7 13 -6 5 -14 1 -24 -16 -38 -18 -14 -21 -21 -11 -27 13 -9 -44 -49 -136
-97 -165 -86 -203 -111 -177 -115 3 0 73 36 156 80 83 45 156 81 162 81 23 -1
-67 -69 -180 -135 -89 -53 -112 -70 -98 -76 14 -4 -19 -24 -121 -72 -77 -37
-155 -74 -174 -84 -39 -20 -54 -46 -25 -42 11 1 26 -1 35 -5 10 -4 41 5 79 23
70 34 94 40 64 15 -19 -15 -19 -16 1 -9 61 22 49 11 -45 -40 -181 -98 -324
-178 -354 -199 l-30 -20 30 -12 29 -12 -30 -7 c-45 -9 -57 -18 -78 -56 -10
-19 -32 -48 -48 -64 -16 -17 -29 -37 -29 -44 0 -8 -15 -30 -33 -50 -42 -47
-237 -359 -300 -481 -31 -59 -67 -111 -94 -137 -39 -37 -45 -48 -41 -74 4 -22
0 -34 -15 -44 -12 -8 -17 -20 -13 -30 3 -10 -1 -18 -11 -22 -9 -3 -53 -83 -99
-177 -45 -94 -92 -181 -104 -194 -21 -23 -135 -254 -192 -390 -32 -78 -71
-132 -94 -132 -18 0 -18 20 0 45 7 11 36 74 63 140 28 66 85 203 127 305 89
212 490 1010 546 1085 20 28 54 82 75 120 21 39 57 90 80 115 23 25 65 79 92
120 324 489 490 726 470 668 -10 -30 16 -21 44 15 14 17 56 73 94 122 37 50
102 131 144 180 42 50 89 107 105 128 15 21 40 41 54 44 18 4 83 65 187 175
415 438 958 967 1029 1003 11 6 21 16 24 23 6 19 -38 6 -133 -38 -44 -21 -108
-48 -142 -60 -60 -22 -75 -35 -380 -344 -175 -177 -397 -409 -494 -516 -96
-107 -217 -240 -269 -295 -51 -55 -118 -131 -149 -170 -31 -38 -101 -124 -156
-190 -126 -151 -358 -459 -410 -545 -22 -36 -63 -98 -92 -138 -28 -41 -86
-141 -128 -223 -57 -111 -82 -149 -95 -149 -10 0 -22 -4 -25 -10 -3 -5 -1 -10
4 -10 13 0 14 -33 2 -46 -5 -5 -76 -137 -156 -294 -81 -157 -156 -293 -168
-303 -15 -14 -21 -28 -18 -52 2 -25 -3 -37 -18 -47 -13 -8 -21 -23 -21 -41 0
-15 -9 -46 -20 -67 l-20 -40 -109 0 c-104 0 -171 12 -171 31 0 14 -22 11 -34
-5 -21 -27 -62 -7 -105 50 -23 31 -38 60 -35 69 5 11 -1 15 -19 15 -14 0 -27
7 -31 15 -5 15 -144 84 -213 105 -21 6 -45 14 -53 17 -50 18 -199 -11 -291
-58 -32 -16 -69 -29 -83 -29 -18 0 -27 -8 -35 -32 -15 -42 -39 -68 -64 -68
-15 0 -18 -5 -14 -22 3 -12 1 -30 -4 -40 -10 -18 -12 -18 -22 -4 -13 17 -104
25 -144 12 -16 -5 -22 -1 -26 15 -4 16 -10 20 -24 14 -42 -17 -95 -20 -218
-12 -71 5 -132 11 -134 13 -3 2 6 15 19 29 30 32 20 32 -28 0 -29 -19 -50 -25
-88 -24 -27 1 -65 1 -84 1 -87 -1 -100 1 -100 20 0 21 -4 22 -29 8 -28 -14
-108 -23 -115 -11 -4 6 -43 7 -101 4 -65 -4 -95 -3 -95 5 0 6 5 14 10 17 6 3
10 13 10 22 0 14 -4 13 -22 -5 -27 -24 -70 -42 -103 -42 -15 0 -46 -21 -84
-56 -62 -57 -73 -74 -46 -74 25 0 17 -18 -26 -52 -35 -28 -38 -34 -25 -44 9
-6 16 -14 16 -17 0 -3 -24 -22 -54 -42 -30 -20 -70 -53 -88 -74 -40 -43 -90
-81 -109 -81 -7 0 8 22 34 48 42 43 59 72 41 72 -4 0 -29 -20 -55 -45 -26 -25
-53 -45 -59 -45 -23 0 -7 25 45 73 37 34 52 54 46 60 -7 7 -30 -8 -68 -45 -58
-55 -103 -86 -103 -71 0 5 34 43 76 86 42 43 74 80 71 83 -7 8 -97 -62 -125
-97 -13 -15 -55 -45 -94 -66 -38 -20 -100 -59 -137 -86 -36 -27 -111 -74 -166
-105 -55 -31 -136 -80 -179 -109 -44 -29 -82 -50 -85 -48 -13 14 67 70 308
215 209 125 288 178 365 247 54 48 94 89 87 91 -14 5 -62 -29 -141 -101 -36
-32 -78 -66 -95 -74 -16 -9 -57 -35 -90 -58 -33 -24 -127 -80 -210 -125 -82
-45 -176 -102 -208 -126 -33 -24 -63 -44 -69 -44 -42 0 98 105 260 196 217
122 248 142 348 225 53 43 104 84 115 89 10 6 19 15 19 20 0 23 -31 5 -111
-62 -97 -84 -192 -146 -375 -246 -72 -40 -175 -103 -229 -142 -54 -38 -102
-67 -107 -64 -4 3 -6 9 -3 13 14 23 132 103 320 216 116 70 230 141 255 158
85 58 169 130 164 139 -7 11 -38 -9 -139 -91 -44 -35 -108 -77 -143 -93 -35
-16 -96 -51 -135 -77 -40 -27 -109 -70 -154 -97 -45 -26 -106 -67 -135 -91
-59 -49 -104 -76 -119 -71 -6 2 8 17 30 33 22 17 73 56 113 87 40 31 107 75
148 99 41 23 91 54 110 69 19 15 76 48 125 73 81 42 255 172 264 198 6 18 -76
-33 -152 -95 -40 -32 -99 -72 -132 -88 -70 -36 -332 -204 -503 -324 -35 -24
-69 -44 -75 -43 -7 0 -1 8 13 17 38 26 110 93 110 103 0 17 -19 9 -82 -35 -35
-24 -97 -60 -138 -81 -126 -63 -232 -126 -306 -182 -39 -29 -77 -53 -85 -53
-39 2 165 141 371 255 47 25 89 50 94 55 17 17 -4 25 -27 10 -12 -8 -71 -41
-132 -73 -169 -91 -255 -144 -318 -199 -73 -63 -90 -53 -20 12 54 49 107 84
318 208 155 91 163 97 148 113 -10 10 -21 4 -52 -24 -22 -20 -69 -51 -103 -68
-170 -85 -282 -155 -354 -220 -71 -64 -94 -80 -94 -62 0 12 133 132 185 167
28 18 91 55 140 81 122 65 137 74 130 85 -7 11 -103 -35 -227 -109 -81 -48
-237 -171 -270 -214 -12 -16 -20 -19 -28 -11 -25 25 244 241 380 306 75 35
120 65 120 79 0 16 -18 10 -79 -29 -33 -20 -97 -59 -143 -85 -46 -26 -139 -95
-208 -152 -122 -102 -189 -142 -121 -71 35 36 26 63 -10 30 -25 -23 -35 -11
-15 18 20 28 20 38 1 38 -8 0 -19 -9 -25 -20 -6 -11 -16 -20 -23 -20 -18 0
-82 -68 -73 -77 4 -4 16 -1 27 6 26 16 35 9 13 -10 -20 -16 -101 -17 -294 -5
-69 5 -170 9 -225 11 -177 4 -633 34 -997 66 -278 23 -274 23 -298 -1 -35 -35
-26 -80 42 -213 83 -166 83 -179 -5 -393 -61 -149 -67 -169 -78 -278 -9 -86
-9 -123 -1 -141 7 -15 8 -26 2 -30 -17 -10 -11 -23 13 -28 l22 -4 -22 -8 c-32
-10 -29 -35 4 -35 29 0 22 -15 -10 -22 -21 -4 -19 -22 2 -25 8 -1 25 -4 38 -8
20 -5 24 -11 23 -42 0 -5 -19 -8 -43 -8 -40 0 -42 -2 -42 -29 0 -28 4 -30 105
-62 126 -41 330 -84 393 -84 26 0 79 7 119 15 40 8 212 40 382 71 171 30 357
66 415 79 91 20 108 22 117 9 8 -10 35 -14 103 -14 60 0 90 -4 86 -10 -4 -7
-47 -9 -111 -7 -71 2 -103 0 -101 -7 2 -7 49 -12 120 -14 109 -2 116 -1 122
18 6 19 12 20 69 14 39 -4 71 -2 82 4 29 16 5 21 -116 25 l-105 3 127 2 c104
2 126 0 122 -12 -7 -19 22 -23 155 -18 136 5 130 21 -9 23 -89 1 -93 2 -65 14
28 13 22 14 -75 15 -58 1 -123 4 -144 8 -38 7 -35 8 70 35 127 31 173 35 154
12 -7 -8 -29 -15 -49 -16 -20 0 -45 -4 -56 -9 -13 -6 11 -8 70 -7 l90 2 0 32
c0 31 0 31 77 47 43 9 114 23 159 33 44 9 86 22 93 29 10 9 24 9 67 -2 56 -16
159 -11 159 7 0 5 -9 9 -21 9 -11 0 -17 5 -14 10 3 6 16 10 29 10 28 0 46 18
46 45 0 11 9 26 20 33 17 10 20 10 20 -2 0 -8 -7 -21 -15 -30 -32 -32 -22 -31
262 31 82 17 114 13 80 -11 -9 -7 -17 -21 -17 -30 0 -13 -11 -16 -52 -18 l-53
-1 45 -6 c42 -6 45 -8 45 -36 0 -23 -5 -31 -23 -33 -12 -2 -22 -7 -22 -12 0
-4 10 -11 22 -14 20 -5 21 -8 8 -19 -15 -12 -18 -48 -7 -77 3 -8 11 -44 17
-80 7 -36 18 -80 26 -99 26 -63 24 -65 -70 -57 -94 7 -116 13 -116 31 0 13
-231 29 -447 30 -67 0 -125 4 -130 9 -4 5 79 6 194 4 188 -5 203 -4 203 12 0
22 -53 32 -90 18 -15 -6 -73 -7 -140 -4 -63 4 -272 7 -465 8 -313 2 -629 11
-533 16 45 2 70 11 62 23 -8 14 -94 10 -148 -6 -27 -8 -65 -15 -85 -15 -20 0
-42 -4 -49 -9 -19 -11 280 -24 631 -26 163 -1 300 -4 302 -7 8 -8 -553 -21
-565 -13 -18 11 -473 26 -483 16 -22 -22 412 -41 1015 -44 279 -2 452 -7 458
-13 6 -6 -14 -8 -60 -6 -39 3 -105 1 -148 -3 -69 -7 -73 -9 -42 -16 19 -4 157
-10 305 -13 149 -3 286 -10 305 -15 25 -8 -1 -9 -96 -5 -91 4 -134 3 -138 -5
-5 -7 5 -11 28 -11 19 0 38 -5 41 -10 4 -6 -26 -10 -84 -10 -49 0 -93 4 -96
10 -4 6 5 7 24 4 16 -3 37 -2 47 4 15 8 14 10 -12 15 -107 21 -312 17 -298 -5
4 -6 28 -7 58 -4 28 3 58 2 66 -4 10 -7 -16 -10 -87 -10 -81 0 -103 -3 -103
-14 0 -19 71 -28 122 -15 34 9 53 9 88 -2 l45 -14 -70 -5 c-61 -4 -66 -6 -36
-13 18 -4 81 -7 140 -8 68 0 99 -3 86 -9 -11 -5 -36 -9 -55 -10 -51 -1 -16
-19 52 -27 29 -3 58 -11 63 -18 9 -10 203 -35 276 -35 5 0 9 -9 9 -20 0 -16 7
-20 35 -20 21 0 48 -9 65 -22 25 -18 47 -22 140 -26 78 -3 110 -8 110 -17 0
-17 55 -24 295 -35 263 -12 325 -12 305 -1 -8 5 -75 11 -148 14 -202 7 -178
23 30 19 129 -3 178 -1 174 7 -4 7 -42 11 -96 11 -49 0 -92 5 -95 10 -8 13 37
30 63 24 12 -4 21 0 25 10 3 8 22 18 42 22 33 6 35 8 21 22 -13 13 -23 14 -61
5 -25 -6 -45 -9 -45 -7 0 2 17 19 37 38 33 29 36 36 24 50 -17 20 -7 33 13 17
18 -15 44 16 89 108 31 63 32 71 32 186 0 101 -4 129 -23 177 -27 66 -97 148
-156 182 -52 30 -167 66 -215 67 -21 0 69 27 214 64 138 35 378 103 535 150
400 122 555 168 788 231 111 30 209 57 217 60 8 4 15 2 15 -4 0 -5 -11 -13
-25 -16 -14 -4 -25 -11 -25 -17 0 -7 10 -9 28 -4 126 30 45 -7 -163 -76 -173
-58 -171 -57 -163 -64 3 -3 101 26 219 63 118 38 226 72 242 76 60 14 21 -4
-105 -50 -73 -27 -126 -50 -118 -52 8 -1 82 20 164 48 82 27 152 48 154 45 7
-7 15 -4 -173 -69 -215 -74 -269 -89 -273 -76 -4 11 -32 13 -57 4 -13 -5 -14
-8 -3 -15 17 -11 3 -23 -44 -39 -21 -6 -38 -15 -38 -20 0 -4 96 23 213 61 116
38 217 69 222 69 17 -1 -265 -106 -550 -204 -275 -96 -392 -142 -383 -152 7
-7 94 22 228 76 119 48 387 140 404 140 26 -2 -91 -52 -249 -108 -256 -90
-470 -179 -473 -197 -4 -18 9 -20 26 -3 24 24 494 208 530 208 13 0 -228 -114
-303 -143 -5 -3 -7 -7 -4 -11 4 -4 57 14 119 39 62 25 115 43 118 40 7 -7 6
-7 -68 -39 -36 -15 -82 -34 -102 -43 -21 -9 -38 -20 -38 -25 0 -4 2 -8 4 -8 5
0 74 25 134 49 102 40 50 11 -148 -85 -110 -54 -199 -99 -197 -101 2 -1 78 28
168 66 202 84 237 94 135 39 -90 -48 -88 -62 3 -24 142 60 63 16 -240 -135
-178 -88 -328 -164 -334 -170 -9 -9 230 98 320 143 67 34 303 138 312 138 20
-1 -374 -204 -500 -259 -27 -11 -46 -25 -43 -30 7 -11 63 12 216 89 56 28 104
49 107 46 6 -6 -350 -185 -489 -246 -96 -42 -150 -80 -115 -80 9 0 19 5 22 10
8 12 35 13 35 1 0 -5 -15 -14 -32 -21 -41 -16 -69 -40 -62 -51 3 -5 19 -2 36
7 16 9 27 11 23 5 -3 -6 -21 -18 -38 -27 -61 -31 -104 -84 -52 -64 31 12 32 4
3 -20 -29 -23 -17 -37 17 -22 14 7 39 12 55 12 20 0 30 5 30 15 0 8 11 17 24
21 14 3 32 14 42 25 11 13 24 17 41 13 16 -5 31 0 46 14 30 27 150 82 194 89
20 4 50 18 65 32 31 27 114 72 268 147 110 53 130 68 130 100 0 13 5 26 12 30
8 5 10 -38 4 -177 -12 -317 -23 -486 -31 -499 -6 -10 -49 -12 -204 -7 -129 4
-188 3 -173 -3 13 -6 102 -13 198 -17 96 -3 174 -10 174 -15 0 -9 -386 -2
-427 8 -19 5 -24 3 -21 -7 7 -20 137 -37 308 -40 99 -2 127 -4 87 -8 -63 -7
-81 -24 -29 -29 17 -2 32 -8 32 -13 0 -8 -66 -6 -144 5 -6 0 -12 -7 -14 -16
-3 -14 3 -18 30 -18 24 -1 29 -3 18 -10 -9 -5 -94 -5 -205 0 -362 17 -511 20
-481 11 15 -6 148 -15 295 -22 146 -6 275 -15 286 -20 15 -6 8 -8 -24 -8 -33
-1 -42 -4 -34 -12 8 -8 67 -12 167 -13 86 0 155 -5 153 -9 -1 -5 -101 -8 -222
-8 -257 1 -270 -13 -20 -23 117 -5 178 -11 199 -21 16 -8 51 -15 77 -15 26 0
51 -5 54 -10 5 -8 11 -8 19 -1 8 7 24 7 45 1 18 -5 45 -7 61 -4 15 4 36 1 47
-5 14 -8 6 -10 -39 -11 -40 0 -58 -4 -58 -12 0 -25 596 -29 1148 -9 36 1 26
28 -13 34 -19 3 -116 3 -215 0 l-180 -6 0 38 c0 21 -3 35 -7 31 -8 -7 -9 -11
-12 -38 -1 -7 -11 6 -23 30 -21 41 -21 44 -5 53 14 8 17 25 17 102 0 51 3 129
7 174 5 69 8 80 18 66 9 -12 10 -25 2 -46 -8 -25 -7 -32 6 -42 12 -9 17 -28
17 -69 0 -36 4 -55 10 -51 6 4 10 -7 10 -25 0 -17 -4 -29 -9 -26 -12 8 -21
-44 -21 -116 0 -58 1 -60 23 -53 12 4 36 7 53 6 18 0 37 6 44 14 18 21 73 19
103 -5 30 -24 51 -26 43 -5 -3 10 1 15 13 15 11 0 21 -5 23 -12 3 -8 10 -8 26
4 16 11 37 14 74 10 40 -4 54 -1 63 12 11 15 13 15 19 1 7 -19 35 -19 62 -1
17 12 22 12 39 0 10 -8 42 -14 72 -14 41 0 54 4 62 19 6 10 7 21 4 25 -3 3 -1
6 5 6 6 0 13 -9 17 -19 7 -22 62 -51 97 -51 13 0 29 -5 35 -11 19 -19 33 -1
22 28 -5 14 -8 27 -7 29 7 7 59 -48 68 -72 10 -25 14 -26 55 -22 35 4 45 2 45
-9 0 -13 -18 -14 -122 -8 -68 4 -148 13 -178 20 -34 7 -64 9 -78 4 -14 -5 -31
-5 -42 1 -10 6 -30 10 -43 10 -14 0 -30 7 -37 15 -7 8 -22 15 -35 15 -21 0
-85 -27 -85 -35 0 -16 61 -26 216 -35 98 -6 211 -17 249 -25 82 -16 146 -18
270 -10 117 8 137 11 155 17 8 4 29 9 45 12 17 4 89 22 160 41 72 20 180 49
240 65 61 16 126 34 145 40 24 9 172 13 480 15 245 2 499 6 565 10 66 3 217 8
335 10 225 5 300 11 300 26 0 12 -126 11 -450 -1 -146 -6 -377 -14 -515 -20
-137 -5 -326 -6 -420 -2 l-170 7 0 97 c0 53 -3 99 -7 103 -3 3 0 18 8 33 8 15
14 39 14 53 0 15 6 31 13 37 8 7 119 11 305 13 169 1 295 6 299 12 3 5 -109 8
-293 7 -341 -3 -324 -3 -324 10 0 6 31 10 73 11 115 2 138 17 26 18 l-96 1 -7
49 c-4 30 -1 63 6 87 13 37 15 39 58 40 74 3 80 4 80 14 0 5 -30 10 -67 12
-61 3 -68 5 -71 24 -5 36 20 52 77 46 34 -3 51 -1 51 6 0 7 -23 11 -61 11 -67
-1 -81 5 -54 24 16 13 16 14 1 20 -11 4 -16 18 -16 44 0 46 11 64 36 63 10 -1
45 -2 76 -3 41 -2 61 -7 70 -19 12 -15 94 -42 288 -94 36 -9 69 -21 74 -25 6
-5 -73 -9 -177 -9 -118 0 -187 -4 -187 -10 0 -13 387 -14 394 -1 6 10 103 -12
117 -26 4 -4 -92 -7 -214 -5 -133 2 -232 -1 -247 -7 -23 -9 67 -12 520 -16 70
-1 110 -10 110 -26 0 -7 -23 -9 -62 -5 -116 10 -486 18 -527 11 -95 -16 -29
-25 187 -26 125 0 247 -4 272 -8 30 -6 -23 -9 -160 -10 -285 -2 -550 -13 -550
-23 0 -4 52 -8 115 -8 104 0 256 -11 343 -26 19 -3 32 -1 32 6 0 5 -17 10 -37
10 -39 0 -72 13 -57 23 5 3 36 0 69 -5 33 -5 105 -8 160 -6 55 3 114 1 130 -3
24 -5 17 -7 -35 -10 -36 -2 -96 -4 -134 -4 -46 0 -71 -4 -73 -12 -5 -14 21
-16 127 -14 30 0 73 -3 95 -8 39 -8 38 -9 -22 -10 -61 -1 -88 -15 -62 -32 8
-5 80 -9 161 -7 82 1 151 -2 155 -5 6 -7 -100 -12 -249 -12 -36 0 -70 -3 -74
-8 -4 -4 -101 -7 -216 -7 -136 0 -208 -4 -208 -10 0 -7 58 -10 168 -9 204 2
268 -8 297 -48 7 -10 61 -16 208 -22 129 -6 203 -14 213 -22 10 -8 43 -10 122
-5 71 5 104 4 97 -3 -5 -5 -77 -12 -159 -15 -82 -3 -151 -8 -154 -10 -10 -11
11 -26 31 -21 22 5 93 8 557 21 242 7 282 13 259 41 -11 12 -10 17 4 24 25 15
21 34 -14 63 -39 33 -59 33 -59 2 0 -32 -16 -42 -23 -15 -5 17 -11 20 -36 14
-17 -3 -37 -3 -45 2 -20 11 -84 116 -103 168 -20 56 -46 246 -35 257 6 6 14
-31 21 -89 7 -54 21 -125 33 -157 25 -69 38 -59 14 11 -19 57 -50 277 -42 299
3 8 10 12 16 9 6 -4 10 7 10 25 0 18 -4 29 -10 25 -28 -17 0 128 45 236 15 34
24 64 21 67 -7 7 -5 9 -49 -63 -89 -149 -115 -326 -79 -531 11 -63 31 -136 46
-167 30 -64 31 -67 12 -67 -32 0 -84 170 -95 307 -15 202 19 352 121 523 l21
35 -32 -30 c-38 -34 -79 -111 -111 -205 -16 -47 -23 -99 -27 -187 -4 -93 -9
-123 -19 -123 -39 0 -23 223 26 348 16 42 43 97 60 122 30 45 38 70 22 70 -27
0 -106 -155 -133 -258 -37 -145 -21 -409 30 -510 12 -23 17 -43 12 -46 -19
-12 -64 76 -79 154 -18 92 -25 290 -12 345 14 62 83 234 117 292 32 55 21 69
-17 23 -44 -53 -88 -146 -110 -234 -33 -130 -24 -358 20 -498 11 -34 17 -64
14 -67 -11 -11 -33 30 -59 109 -26 77 -28 98 -29 245 l-1 160 48 119 c27 66
61 138 78 162 19 28 25 45 18 49 -35 22 -137 -169 -164 -307 -19 -101 -5 -347
24 -432 26 -73 28 -97 7 -76 -17 17 -66 158 -66 189 0 11 -4 23 -10 26 -18 11
-11 -98 10 -144 27 -58 25 -72 -5 -38 -44 50 -56 115 -54 297 l2 165 42 110
c23 60 54 133 69 162 14 29 26 57 26 63 0 46 -83 -75 -116 -169 -33 -94 -43
-176 -44 -336 -1 -133 2 -152 36 -272 3 -13 2 -23 -3 -23 -5 0 -20 32 -33 71
-36 103 -56 106 -25 4 8 -27 12 -51 10 -53 -10 -11 -24 14 -44 83 -21 69 -22
89 -17 238 7 214 42 348 120 464 35 51 35 74 0 42 -43 -39 -92 -122 -121 -206
-26 -75 -27 -85 -26 -283 0 -164 3 -214 17 -249 18 -50 22 -91 6 -75 -18 18
-51 147 -51 204 -4 309 15 411 105 559 40 65 42 71 22 71 -7 0 -36 -34 -65
-76 -64 -95 -93 -187 -94 -298 -2 -162 11 -331 27 -375 18 -49 20 -61 8 -61
-13 0 -30 42 -37 92 -9 58 -21 79 -35 58 -5 -8 -10 -10 -10 -5 0 6 7 20 15 32
11 16 14 53 13 174 -1 144 0 159 26 234 15 44 45 113 67 153 21 41 39 78 39
83 0 5 -11 9 -24 9 -55 0 -150 -170 -171 -307 -4 -24 -11 -43 -17 -43 -26 0
28 169 89 278 19 35 33 66 30 68 -2 3 -19 -12 -37 -33 -36 -41 -76 -121 -96
-192 -7 -25 -13 -39 -13 -31 -2 35 32 139 66 200 34 62 34 64 8 40 -35 -33
-100 -169 -119 -250 -18 -74 -21 -170 -6 -170 6 0 10 10 11 23 0 20 2 19 11
-6 9 -26 11 -27 23 -10 16 21 16 20 34 -112 6 -44 23 -115 37 -158 17 -51 23
-82 17 -88 -13 -13 -62 118 -70 184 -3 26 -10 50 -14 53 -14 8 1 -85 25 -159
24 -73 22 -91 -6 -55 -15 19 -18 20 -18 6 0 -25 -17 -22 -26 5 -3 12 -13 30
-21 39 -16 18 -36 161 -36 258 -1 133 57 340 118 426 19 27 32 50 30 53 -9 9
-42 -30 -80 -94 -21 -36 -39 -65 -41 -65 -7 0 23 65 48 106 13 21 28 45 32 52
4 7 2 12 -8 12 -20 0 -105 -121 -128 -183 -11 -28 -24 -92 -29 -142 -6 -49
-15 -94 -21 -100 -7 -7 -8 3 -4 30 18 129 18 147 5 143 -8 -3 -20 -27 -27 -54
-16 -58 -1 -299 24 -386 20 -72 21 -80 7 -85 -8 -3 -13 4 -13 16 0 11 -10 44
-22 73 -21 49 -23 67 -22 229 1 139 5 182 18 206 11 22 21 30 33 27 14 -4 22
6 36 45 20 57 110 197 135 210 10 5 38 5 67 -1 28 -5 88 -12 135 -15 51 -3 89
-10 95 -17 13 -17 65 -30 65 -16 0 5 -4 10 -10 10 -5 0 -10 4 -10 9 0 6 12 4
26 -4 16 -8 49 -12 87 -10 34 2 50 1 35 -1 -55 -10 -24 -36 34 -29 104 13 270
27 274 22 3 -2 -33 -10 -79 -17 -119 -17 -135 -33 -24 -26 51 4 87 2 87 -3 0
-5 -6 -11 -12 -14 -7 -2 -9 -8 -5 -13 10 -11 174 -7 267 6 36 5 153 11 260 14
210 5 192 3 -215 -24 -216 -15 -255 -37 -55 -32 l55 2 -51 -18 c-49 -17 -147
-86 -191 -134 -49 -53 -93 -199 -93 -313 0 -133 44 -313 102 -416 21 -38 48
-52 48 -25 0 8 -14 43 -30 78 -49 104 -62 190 -58 368 4 130 8 164 27 212 31
79 80 139 142 172 53 29 53 29 298 37 136 4 266 10 291 13 45 6 706 22 1285
31 282 5 311 7 330 24 11 10 29 23 40 29 20 11 20 11 -2 12 -12 0 -28 3 -37 6
-35 14 -12 19 69 16 47 -2 83 -7 80 -12 -3 -5 -12 -7 -20 -4 -8 3 -20 2 -27
-2 -9 -6 -4 -11 17 -15 l30 -6 -33 -8 c-63 -15 -17 -22 103 -16 110 5 120 8
117 25 -2 11 1 15 7 11 6 -3 11 -13 11 -21 0 -11 16 -14 68 -14 76 0 82 2 75
31 -6 23 -51 26 -59 4 -9 -23 -40 -18 -68 10 -33 33 -101 36 -111 5 -6 -20
-35 -28 -35 -10 0 6 5 10 11 10 5 0 7 5 3 11 -3 6 -19 9 -35 5 -15 -3 -29 -1
-31 3 -2 5 -79 13 -173 19 -126 7 -191 16 -250 33 l-80 24 -3 38 c-3 30 -7 37
-20 35 -13 -3 -16 -13 -14 -47 l3 -43 -273 7 c-150 4 -300 11 -333 16 -45 6
-32 7 53 3 63 -3 112 -1 112 4 0 9 -188 22 -299 22 -54 -1 -55 -1 -31 -16 23
-14 20 -15 -50 -10 -41 3 -200 11 -352 18 -153 6 -278 16 -278 21 0 4 60 6
133 3 198 -7 62 8 -353 39 -190 15 -406 33 -480 40 l-135 13 150 -3 c229 -6
71 11 -485 51 -89 6 -104 -5 -22 -17 26 -4 -29 -5 -123 -2 -190 6 -305 22
-147 21 51 0 95 2 99 6 3 3 4 6 0 6 -39 0 -646 42 -657 45 -16 5 -42 53 -32
59 4 2 84 -3 177 -10 94 -8 193 -12 222 -9 31 4 54 2 58 -4 3 -6 18 -11 33
-11 l27 1 -22 18 c-15 12 -47 20 -105 25 -46 4 -155 13 -242 20 -167 14 -186
20 -186 68 0 21 16 24 23 5 4 -10 38 -16 119 -21 258 -15 430 -25 551 -32 71
-4 127 -11 127 -17 0 -6 -30 -7 -80 -3 -54 5 -80 4 -80 -3 0 -7 36 -11 103
-11 56 0 126 -3 155 -6 34 -5 52 -3 52 4 0 6 -19 13 -42 15 -24 2 10 2 76 -1
86 -3 117 -1 112 7 -5 7 2 11 17 11 14 0 27 -6 30 -14 3 -8 14 -14 24 -14 10
1 65 -2 122 -6 95 -7 103 -6 97 9 -5 13 -2 16 10 11 8 -3 22 -6 30 -6 9 0 13
-4 10 -9 -3 -5 8 -11 25 -15 52 -10 79 -7 79 9 0 8 5 15 12 15 6 0 9 2 7 5 -8
8 -215 23 -732 55 -689 42 -676 41 -671 55 6 15 -46 25 -129 25 -36 0 -56 4
-52 10 3 6 36 10 73 10 44 0 62 3 53 9 -15 10 112 7 407 -9 186 -11 328 -13
321 -5 -6 5 -248 20 -589 35 -129 6 -245 13 -257 16 -17 3 -23 11 -23 33 0 48
15 53 136 41 60 -5 172 -10 249 -10 77 0 212 -4 300 -10 163 -10 487 -27 675
-35 105 -5 105 -5 55 10 l-50 14 65 -5 c40 -3 69 -11 76 -20 13 -16 40 -19 49
-4 3 6 23 10 43 9 32 -1 34 -2 12 -8 l-25 -7 25 -7 c39 -11 132 -8 125 3 -10
17 27 11 48 -7 15 -13 21 -15 24 -5 5 14 33 17 33 3 0 -13 105 -22 133 -12 16
6 28 6 35 -1 5 -5 22 -8 38 -6 l29 3 -25 17 c-19 13 -73 20 -235 32 -115 9
-291 22 -390 30 -309 25 -471 30 -505 16 -25 -10 -34 -10 -55 4 -29 19 -171
24 -159 5 9 -16 -170 -1 -215 17 -27 11 -37 12 -49 2 -19 -16 -400 -12 -419 4
-21 17 -15 40 22 96 35 51 38 72 10 72 -20 0 -64 -80 -82 -147 -21 -81 -13
-257 16 -338 27 -74 79 -147 130 -181 57 -37 70 -39 786 -79 387 -22 561 -34
810 -55 121 -11 317 -24 435 -30 118 -6 319 -17 445 -25 444 -28 1040 -55
1196 -55 61 0 79 -4 93 -19 16 -17 15 -18 -16 -23 -102 -14 -1022 20 -1307 49
-57 5 -64 4 -58 -10 4 -10 2 -17 -2 -17 -5 0 -11 6 -14 14 -4 9 -43 17 -129
24 -119 12 -492 30 -553 28 -16 0 -109 7 -205 17 -96 9 -283 21 -415 27 -312
14 -807 47 -915 61 -182 24 -288 111 -341 280 -14 46 -19 91 -19 183 0 228 58
353 214 460 l57 39 63 -11 c35 -7 115 -12 177 -12 117 0 315 -12 474 -30 50
-5 194 -16 320 -25 127 -8 291 -20 365 -25 74 -6 194 -15 265 -20 72 -5 236
-17 365 -26 129 -8 307 -24 395 -35 164 -19 464 -42 775 -60 96 -5 195 -14
220 -19 25 -5 74 -9 110 -10 118 -1 153 -24 48 -32 -35 -3 -68 -1 -74 3 -6 5
-82 11 -170 14 -291 10 -604 34 -984 75 -343 37 -612 55 -850 56 -313 3 -683
22 -993 53 -114 12 -261 20 -326 19 -109 -2 -119 -4 -134 -25 -17 -22 -17 -22
20 -28 68 -11 69 -13 3 -15 l-65 -3 45 -8 c60 -10 214 -10 180 1 -16 5 13 8
80 8 92 0 101 -1 70 -11 l-35 -12 50 -3 c28 -1 138 -11 246 -22 197 -20 443
-35 359 -22 -42 7 -44 8 -23 20 27 15 55 16 70 1 6 -6 160 -20 378 -35 358
-23 538 -40 450 -43 -22 0 -130 6 -240 14 -236 17 -268 18 -261 6 3 -4 56 -11
118 -15 62 -4 218 -14 346 -22 129 -9 236 -13 239 -10 4 3 -9 6 -28 7 -19 0
-43 4 -54 9 -18 8 -18 9 5 9 14 1 162 -12 330 -29 326 -31 814 -75 970 -88
112 -8 108 0 60 -137 -38 -106 -48 -216 -31 -314 15 -84 25 -102 44 -81 12 13
13 36 4 144 -10 127 -9 129 16 185 14 31 29 73 32 93 4 24 23 58 57 98 48 58
53 61 87 56 20 -3 71 -8 114 -11 l77 -7 0 54 c0 30 -6 61 -12 70 -13 16 -86
25 -353 43 -140 10 -636 61 -1005 105 -530 62 -766 85 -1040 105 -271 19 -510
41 -645 60 -157 22 -368 42 -383 37 -7 -3 -10 -12 -7 -23 6 -17 0 -19 -61 -19
-61 0 -66 1 -48 14 17 14 18 16 3 31 -9 9 -41 19 -75 22 -32 3 -62 11 -66 16
-4 7 -11 7 -20 0 -7 -6 -24 -13 -38 -15 -35 -4 -32 -31 5 -39 27 -6 28 -7 5
-8 -27 -1 -65 -21 -42 -21 24 0 -26 -52 -77 -81 -64 -37 -132 -106 -171 -175
-18 -30 -34 -53 -37 -50 -2 2 1 14 7 26 6 12 9 24 6 28 -20 19 -51 -80 -76
-239 l-18 -124 -1 81 c-1 90 24 204 64 292 14 30 19 49 11 43 -39 -33 -106
-244 -106 -336 0 -127 65 -294 146 -376 45 -45 52 -57 39 -63 -24 -9 -42 4
-111 76 -101 104 -138 202 -136 358 1 135 52 314 123 424 20 33 27 52 20 59
-14 14 -35 -5 -75 -72 -48 -79 -74 -149 -101 -271 -22 -97 -23 -101 -24 -54
-1 56 31 178 80 312 17 46 29 86 26 88 -14 15 -99 -170 -130 -281 -23 -85 -35
-228 -26 -311 12 -110 39 -163 125 -240 41 -36 71 -70 68 -76 -4 -5 -15 -1
-28 10 -27 25 -57 41 -38 21 32 -34 18 -35 -218 -10 -58 6 -161 15 -229 21
-139 11 -176 25 -208 76 -27 41 -56 134 -42 134 5 0 9 -6 9 -13 0 -22 58 -132
79 -151 32 -29 47 -8 17 23 -33 35 -54 86 -60 152 -3 30 -3 45 0 34 26 -97 51
-153 87 -192 51 -55 67 -46 22 13 -34 44 -66 128 -64 168 0 12 11 -9 24 -46
28 -81 72 -147 114 -171 44 -26 39 -6 -14 59 -46 57 -66 108 -87 222 -9 48 -9
65 0 74 9 9 12 3 12 -28 0 -54 24 -144 57 -210 34 -70 133 -164 133 -126 0 5
-12 19 -26 33 -41 37 -72 92 -99 173 -44 132 -31 339 35 536 17 50 29 97 27
103 -8 24 -106 -277 -122 -376 -3 -20 -11 -37 -16 -37 -23 0 18 216 66 348 29
81 27 111 -3 41 -52 -120 -102 -313 -102 -391 0 -19 -4 -27 -11 -22 -23 14 20
264 68 397 31 85 22 100 -13 23 -45 -99 -94 -273 -94 -337 0 -33 -5 -61 -12
-65 -8 -5 -10 15 -5 82 7 101 35 217 72 301 33 74 27 104 -7 38 -32 -62 -74
-188 -92 -278 -19 -88 -30 -100 -21 -22 10 82 38 187 73 279 17 42 25 72 18
67 -33 -28 -126 -284 -126 -347 0 -12 -5 -26 -11 -29 -29 -18 27 208 75 304
20 39 36 77 36 86 0 37 -22 7 -74 -97 -55 -112 -86 -222 -86 -305 0 -28 -3
-34 -10 -23 -16 24 -12 90 10 174 12 43 19 81 16 83 -11 12 -46 -101 -60 -197
-2 -14 -4 1 -5 34 -1 66 19 152 55 233 13 31 23 58 21 60 -7 7 -66 -132 -82
-192 -8 -33 -18 -93 -22 -133 -4 -54 -9 -69 -15 -57 -11 18 8 214 24 255 15
40 160 312 163 308 2 -2 -2 -22 -8 -45 -6 -23 -7 -46 -3 -50 4 -4 83 -11 174
-14 212 -8 604 -35 789 -54 78 -8 152 -15 163 -15 23 0 27 29 8 48 -9 9 -8 12
4 12 9 0 20 5 23 10 11 18 -16 40 -45 38 -16 -1 -35 4 -44 11 -12 10 -19 11
-30 2 -13 -11 -90 -9 -606 19 -102 6 -231 10 -287 10 -99 0 -103 1 -119 26
-17 25 -17 26 8 47 14 12 30 36 36 53 5 17 36 74 68 125 31 52 84 138 116 193
84 142 279 397 378 496 115 115 284 261 329 284 20 10 47 28 61 41 49 43 186
133 260 170 41 21 100 59 130 85 30 26 91 69 135 97 177 109 421 324 466 409
9 17 50 54 90 82 41 28 85 68 98 87 14 20 38 43 55 52 42 21 224 190 231 214
4 11 37 44 75 74 37 30 105 89 150 132 63 61 86 91 104 136 17 43 37 70 70 97
69 57 225 239 246 287 10 22 27 44 38 47 11 4 47 35 81 70 44 46 61 72 61 91
0 18 16 45 51 83 28 32 65 86 82 122 17 36 33 68 35 73 5 11 -19 7 -53 -8z
m-755 -720 c0 -9 -217 -158 -267 -183 -52 -26 -76 -25 -55 1 15 17 295 183
315 186 4 1 7 -1 7 -4z m903 -3412 c-7 -2 -21 -2 -30 0 -10 3 -4 5 12 5 17 0
24 -2 18 -5z m557 -44 c346 -31 518 -53 345 -43 -117 7 -606 51 -760 69 l-120
14 100 -5 c55 -2 251 -18 435 -35z m-3307 -274 c5 -28 4 -34 -3 -20 -8 19 -14
73 -6 64 2 -2 6 -22 9 -44z m665 -204 c23 0 42 -6 42 -11 0 -6 -15 -8 -37 -5
-32 5 -104 8 -333 14 -19 1 -30 5 -24 9 7 4 79 4 160 1 82 -4 168 -7 192 -8z
m775 -58 c-13 -2 -33 -2 -45 0 -13 2 -3 4 22 4 25 0 35 -2 23 -4z m-3653 -59
c0 -8 -67 -34 -87 -33 -13 0 39 24 85 38 1 1 2 -1 2 -5z m5005 -244 c-4 -6
-78 -9 -188 -8 -195 1 -153 11 66 15 82 2 126 -1 122 -7z m-470 -11 c-22 -4
-89 -7 -150 -7 -103 1 -105 2 -40 8 39 4 106 7 150 7 67 1 73 -1 40 -8z
m-1215 -861 c0 -5 -58 -7 -130 -5 -71 1 -130 5 -130 9 0 4 58 6 130 5 71 -1
130 -5 130 -9z m-5345 -46 c-4 -22 0 -35 20 -56 32 -34 32 -46 0 -46 -18 0
-23 4 -18 16 5 15 1 16 -33 10 l-39 -6 28 16 c18 9 26 21 23 30 -6 15 9 64 20
64 3 0 3 -13 -1 -28z m5383 -78 c-7 -6 -309 -6 -316 1 -3 3 68 5 158 5 90 0
161 -2 158 -6z m-4088 -289 c7 -8 8 -15 2 -15 -5 0 -15 7 -22 15 -7 8 -8 15
-2 15 5 0 15 -7 22 -15z m-132 -73 c2 -8 -8 -12 -30 -12 -31 1 -32 1 -13 15
21 17 37 15 43 -3z"/>
<path d="M9750 6435 c-19 -23 -8 -26 20 -5 19 15 21 20 9 20 -9 0 -22 -7 -29
-15z"/>
<path d="M9485 6014 c-120 -70 -160 -110 -49 -50 73 41 174 105 174 112 0 10
-22 -1 -125 -62z"/>
<path d="M9480 5924 c-47 -30 -107 -61 -134 -69 -27 -8 -115 -52 -195 -97 -80
-45 -179 -99 -219 -121 -40 -21 -70 -42 -67 -47 5 -8 91 33 162 76 12 8 37 14
54 14 18 0 56 13 84 29 29 16 79 37 111 47 65 19 174 82 174 101 0 7 24 30 53
51 53 40 86 73 71 71 -5 0 -47 -25 -94 -55z"/>
<path d="M8650 5148 c-130 -52 -136 -55 -129 -63 10 -9 263 85 283 105 22 22
-33 7 -154 -42z"/>
<path d="M8496 5009 c-32 -17 -56 -33 -53 -35 5 -5 84 33 117 55 30 21 -7 9
-64 -20z"/>
<path d="M6680 4027 c0 -8 7 -21 16 -28 14 -11 15 -10 12 11 -3 26 -28 41 -28
17z"/>
<path d="M7020 3920 c0 -5 7 -10 15 -10 8 0 15 5 15 10 0 6 -7 10 -15 10 -8 0
-15 -4 -15 -10z"/>
<path d="M8029 3744 c-12 -14 -11 -16 5 -13 11 2 21 10 24 17 5 17 -13 15 -29
-4z"/>
<path d="M7790 3714 c0 -17 22 -14 28 4 2 7 -3 12 -12 12 -9 0 -16 -7 -16 -16z"/>
<path d="M7007 3683 c-12 -11 -8 -23 7 -23 7 0 19 7 26 15 10 12 9 15 -7 15
-11 0 -23 -3 -26 -7z"/>
<path d="M7807 3654 c-9 -10 2 -24 19 -24 8 0 14 7 14 15 0 15 -21 21 -33 9z"/>
<path d="M7737 3634 c-13 -13 -7 -24 14 -24 11 0 19 5 17 12 -5 14 -22 21 -31
12z"/>
<path d="M7820 3575 c-12 -15 -11 -16 16 -13 16 1 28 8 27 13 -3 17 -29 17
-43 0z"/>
<path d="M7847 3504 c-9 -10 2 -24 19 -24 8 0 14 7 14 15 0 15 -21 21 -33 9z"/>
<path d="M7781 3476 c-8 -10 -9 -16 -1 -21 13 -8 30 3 30 21 0 18 -14 18 -29
0z"/>
<path d="M4442 3408 c6 -18 28 -21 28 -4 0 9 -7 16 -16 16 -9 0 -14 -5 -12
-12z"/>
<path d="M8740 3175 c0 -8 7 -15 15 -15 8 0 15 7 15 15 0 8 -7 15 -15 15 -8 0
-15 -7 -15 -15z"/>
<path d="M2886 3132 c-2 -4 -1 -14 4 -22 7 -11 12 -12 21 -3 6 6 8 16 5 22 -8
13 -23 14 -30 3z"/>
<path d="M1892 3078 c-7 -7 -12 -16 -12 -20 0 -12 28 -10 36 3 10 17 -10 31
-24 17z"/>
<path d="M3473 2965 c-3 -9 -3 -19 1 -22 8 -9 37 18 30 28 -8 14 -24 11 -31
-6z"/>
<path d="M3565 2949 c-4 -6 -5 -12 -2 -15 7 -7 37 7 37 17 0 13 -27 11 -35 -2z"/>
<path d="M3243 2943 c-14 -5 -18 -23 -5 -23 5 0 17 7 28 15 14 11 15 14 4 14
-8 0 -21 -3 -27 -6z"/>
<path d="M3257 2885 c-53 -36 -127 -84 -164 -106 -72 -44 -87 -59 -74 -72 8
-8 94 45 230 140 29 21 69 48 87 61 32 21 45 42 26 42 -5 0 -52 -29 -105 -65z"/>
<path d="M9430 2920 c0 -5 9 -10 20 -10 11 0 20 5 20 10 0 6 -9 10 -20 10 -11
0 -20 -4 -20 -10z"/>
<path d="M3319 2854 c-35 -25 -85 -56 -110 -69 -66 -34 -229 -145 -229 -156 0
-17 17 -10 91 39 41 26 115 72 164 102 100 60 165 107 165 121 0 16 -15 9 -81
-37z"/>
<path d="M3428 2861 c-19 -16 -74 -53 -124 -81 -125 -73 -354 -222 -354 -232
0 -20 36 -2 154 76 70 47 169 108 221 136 95 53 165 112 146 124 -5 4 -25 -7
-43 -23z"/>
<path d="M3963 2843 c-14 -5 -18 -33 -5 -33 4 0 13 5 20 12 22 22 14 33 -15
21z"/>
<path d="M8454 2835 c3 -9 6 -19 6 -21 0 -2 9 -4 21 -4 29 0 21 34 -10 38 -19
3 -22 0 -17 -13z"/>
<path d="M3073 2830 c-13 -5 -23 -14 -23 -19 0 -7 9 -6 25 1 14 6 25 15 25 20
0 9 2 9 -27 -2z"/>
<path d="M3003 2793 c-17 -6 -16 -23 1 -23 8 0 16 7 20 15 6 15 1 17 -21 8z"/>
<path d="M7433 2755 c-27 -51 -93 -250 -108 -324 -24 -115 -17 -284 14 -364
33 -83 161 -217 161 -168 0 6 -10 17 -22 25 -44 31 -87 98 -108 169 -20 65
-22 87 -17 217 4 126 10 162 41 273 20 70 40 137 46 148 6 11 10 25 7 32 -2 7
-8 4 -14 -8z"/>
<path d="M7696 2748 c-20 -32 -78 -178 -104 -263 -54 -179 -55 -330 -5 -437
17 -35 49 -82 71 -105 45 -46 76 -59 48 -20 -94 128 -101 152 -100 347 0 173
16 253 80 409 35 83 39 114 10 69z"/>
<path d="M7367 2738 c-9 -12 -36 -88 -62 -168 -44 -132 -48 -156 -53 -266 -5
-135 5 -180 61 -287 28 -54 105 -137 127 -137 18 0 11 12 -36 62 -89 96 -119
201 -111 398 5 130 32 260 77 364 22 53 21 72 -3 34z"/>
<path d="M7452 2652 c-16 -44 -42 -133 -57 -198 -22 -99 -26 -138 -23 -229 3
-101 6 -116 36 -177 30 -62 127 -168 153 -168 15 0 -5 31 -41 65 -35 33 -59
76 -91 162 -20 52 -21 69 -16 187 7 133 29 253 66 360 23 66 25 76 13 76 -5 0
-23 -35 -40 -78z"/>
<path d="M7516 2653 c-50 -133 -86 -311 -86 -432 0 -67 22 -149 56 -207 27
-45 141 -160 151 -150 3 3 -19 34 -49 68 -100 114 -124 189 -115 367 7 147 33
276 82 404 4 9 3 17 -3 17 -6 0 -22 -30 -36 -67z"/>
<path d="M7595 2684 c-8 -20 -34 -94 -56 -163 -40 -121 -41 -131 -43 -266 -1
-138 -1 -141 31 -205 17 -36 45 -79 62 -96 46 -48 121 -108 127 -101 3 3 -24
36 -59 74 -114 120 -132 183 -117 397 9 127 37 261 74 348 19 44 19 48 6 48
-5 0 -17 -16 -25 -36z"/>
<path d="M2970 2695 c-7 -9 -11 -18 -8 -20 9 -10 38 7 38 21 0 18 -14 18 -30
-1z"/>
<path d="M2772 2648 c-7 -7 -12 -16 -12 -20 0 -12 28 -10 36 3 10 17 -10 31
-24 17z"/>
<path d="M8185 2643 c-59 -31 -109 -93 -74 -93 11 0 76 44 124 84 l30 25 -25
0 c-14 0 -38 -7 -55 -16z"/>
<path d="M2846 2617 c-11 -8 -15 -17 -10 -20 14 -8 37 8 33 22 -3 8 -10 8 -23
-2z"/>
<path d="M2437 2613 c-12 -11 -8 -23 7 -23 8 0 16 7 20 15 5 15 -14 21 -27 8z"/>
<path d="M7835 2603 c-22 -54 -65 -189 -64 -202 0 -15 88 194 89 212 0 14 -18
7 -25 -10z"/>
<path d="M2785 2579 c-12 -19 5 -23 22 -6 16 16 16 17 1 17 -9 0 -20 -5 -23
-11z"/>
<path d="M2411 2541 c-98 -57 -97 -84 2 -35 61 31 89 53 81 65 -8 13 -12 11
-83 -30z"/>
<path d="M2555 2559 c-12 -19 5 -23 22 -6 16 16 16 17 1 17 -9 0 -20 -5 -23
-11z"/>
<path d="M2725 2541 c-3 -5 -1 -12 5 -16 12 -7 30 2 30 16 0 12 -27 12 -35 0z"/>
<path d="M2817 2533 c-4 -3 -7 -12 -7 -19 0 -17 27 -7 34 12 5 14 -15 20 -27
7z"/>
<path d="M2590 2515 c-7 -9 -10 -18 -7 -22 8 -7 37 15 37 28 0 14 -16 11 -30
-6z"/>
<path d="M2899 2514 c-12 -14 -11 -16 5 -13 11 2 21 10 24 17 5 17 -13 15 -29
-4z"/>
<path d="M2255 2510 c-4 -6 -50 -39 -103 -74 -96 -61 -130 -91 -119 -102 8 -8
246 159 246 174 1 15 -15 16 -24 2z"/>
<path d="M8120 2500 c0 -11 6 -22 13 -24 34 -10 479 -42 1112 -81 54 -3 71 -2
53 4 -28 9 -251 33 -518 55 l-155 13 119 2 c66 0 117 3 115 5 -4 4 -268 21
-484 31 -109 5 -118 4 -95 -10 l25 -14 -35 0 c-35 1 -94 15 -75 19 16 2 -27
19 -52 19 -17 1 -23 -5 -23 -19z"/>
<path d="M2761 2487 c-6 -8 -8 -17 -5 -20 9 -8 44 11 44 23 0 15 -26 12 -39
-3z"/>
<path d="M2254 2442 c-85 -47 -244 -177 -244 -199 0 -26 27 -12 75 38 28 28
89 78 138 111 48 33 87 64 87 69 0 12 2 13 -56 -19z"/>
<path d="M1930 2416 l0 -29 28 24 c15 13 30 26 35 29 4 3 -9 6 -28 6 -32 0
-35 -2 -35 -30z"/>
<path d="M10365 2419 c30 -9 405 -47 725 -73 172 -15 439 -29 370 -20 -97 13
-1067 104 -1094 103 l-31 -1 30 -9z"/>
<path d="M1910 2310 c0 -5 -14 -24 -32 -42 -22 -22 -27 -33 -18 -36 8 -3 27
10 42 29 28 34 36 59 18 59 -5 0 -10 -4 -10 -10z"/>
<path d="M1990 2305 c-7 -8 -8 -15 -2 -15 5 0 15 7 22 15 7 8 8 15 2 15 -5 0
-15 -7 -22 -15z"/>
<path d="M10129 2252 c9 -17 21 -22 56 -22 24 0 45 5 47 11 2 7 12 7 30 0 14
-5 35 -7 47 -4 12 3 21 1 21 -6 0 -8 5 -9 19 -1 11 5 28 10 38 9 16 0 16 -1
-2 -8 -16 -6 -14 -9 15 -15 27 -5 38 -3 48 11 13 17 14 17 27 0 10 -15 32 -20
96 -24 59 -5 80 -3 75 5 -4 7 9 6 36 -4 55 -20 264 -32 254 -16 -9 15 57 16
195 1 102 -10 194 -5 185 10 -3 4 -92 11 -198 15 -106 4 -310 15 -453 26 -143
10 -325 22 -404 26 l-143 7 11 -21z"/>
<path d="M7750 2219 c0 -89 75 -262 139 -324 52 -51 61 -43 11 11 -53 58 -106
168 -126 264 -17 85 -24 98 -24 49z"/>
<path d="M1805 2209 c-4 -6 -5 -12 -2 -15 7 -7 37 7 37 17 0 13 -27 11 -35 -2z"/>
<path d="M8980 2212 c0 -6 17 -14 38 -17 20 -4 44 -7 52 -9 8 -1 14 -8 13 -14
-3 -14 33 -16 42 -2 4 6 68 8 168 5 209 -7 172 9 -58 25 -93 6 -189 13 -212
17 -28 3 -43 1 -43 -5z"/>
<path d="M8663 2194 c6 -6 379 -33 386 -27 11 8 -14 13 -124 22 -133 12 -272
14 -262 5z"/>
<path d="M11383 2193 c9 -2 25 -2 35 0 9 3 1 5 -18 5 -19 0 -27 -2 -17 -5z"/>
<path d="M9843 2173 c9 -2 17 -9 17 -15 0 -7 -20 -9 -57 -5 -109 11 -278 20
-272 14 11 -13 330 -38 534 -42 201 -4 206 -4 115 8 -52 7 -105 18 -117 25
-26 15 -46 16 -38 2 4 -6 -19 -9 -62 -8 -37 0 -53 3 -35 5 55 7 25 23 -41 22
-34 -1 -54 -3 -44 -6z"/>
<path d="M10350 2117 c3 -2 93 -12 200 -21 294 -24 337 -27 320 -17 -21 12
-531 50 -520 38z"/>
<path d="M8300 2092 c0 -12 69 -20 235 -27 78 -3 120 -1 104 4 -14 4 -86 11
-160 15 -73 4 -144 10 -156 13 -13 3 -23 1 -23 -5z"/>
<path d="M9721 2046 c9 -10 41 -21 73 -25 98 -13 75 -23 -44 -17 -81 4 -102 2
-70 -4 64 -12 218 -12 222 0 3 11 45 8 423 -20 185 -14 208 -14 201 6 -5 12 1
11 28 -5 28 -18 48 -21 127 -20 63 1 86 4 69 9 -19 6 -9 8 36 9 46 1 63 -3 68
-14 3 -8 16 -15 28 -15 l22 0 -22 22 c-22 22 -35 24 -320 38 -183 10 -302 12
-309 7 -8 -6 -23 -5 -40 1 -45 17 -150 24 -173 12 -14 -8 -26 -8 -41 0 -11 7
-46 13 -77 15 -31 2 -93 6 -137 10 -75 7 -79 6 -64 -9z"/>
<path d="M8680 1994 c22 -6 624 -64 705 -68 39 -2 111 -8 160 -15 50 -6 187
-16 305 -21 201 -9 691 -31 1020 -46 103 -5 142 -3 135 4 -5 6 -37 13 -70 15
-62 5 79 1 335 -8 93 -4 138 -2 125 4 -20 9 -454 30 -1175 56 -560 21 -781 32
-1178 60 -335 24 -394 27 -362 19z m2143 -121 c-18 -2 -48 -2 -65 0 -18 2 -4
4 32 4 36 0 50 -2 33 -4z"/>
<path d="M10920 1966 c0 -18 75 -25 335 -31 134 -3 206 -1 185 4 -19 5 -129
11 -245 15 -115 3 -225 10 -242 15 -25 7 -33 7 -33 -3z"/>
<path d="M4885 1629 c-121 -40 -132 -45 -123 -54 4 -5 246 80 256 90 11 11
-17 3 -133 -36z"/>
<path d="M4900 1596 c-129 -46 -228 -85 -213 -86 13 0 323 107 331 115 12 12
-29 2 -118 -29z"/>
<path d="M12500 1605 c0 -9 9 -15 25 -15 14 0 25 5 25 11 0 6 -7 9 -15 5 -8
-3 -15 -1 -15 4 0 6 -4 10 -10 10 -5 0 -10 -7 -10 -15z"/>
<path d="M9118 1548 c-44 -59 -80 -146 -98 -241 -10 -52 -15 -365 -6 -375 14
-13 18 14 23 145 6 167 36 303 91 413 20 41 39 78 40 83 2 4 -3 7 -11 7 -8 0
-26 -15 -39 -32z"/>
<path d="M9236 1527 c-58 -76 -117 -242 -120 -337 -2 -106 5 -220 14 -220 5 0
9 52 8 128 -1 123 0 130 34 217 20 50 52 123 72 162 38 77 34 105 -8 50z"/>
<path d="M11807 1524 c-5 -5 -256 -14 -762 -28 -283 -7 -514 -16 -730 -26
-110 -6 -270 -11 -356 -13 -133 -3 -161 -6 -189 -23 -49 -28 -51 -49 -3 -25
21 11 52 22 68 26 33 6 19 -2 -44 -26 -19 -7 -49 -28 -67 -46 -18 -18 -31 -26
-28 -18 4 8 1 15 -5 15 -32 0 -70 -157 -71 -285 0 -92 28 -244 55 -301 14 -28
50 -75 80 -103 l55 -53 63 6 c34 3 116 8 182 11 341 14 575 26 587 30 7 2 123
9 258 15 257 11 300 16 300 31 0 15 -189 10 -593 -17 -80 -5 -97 -4 -95 7 4
20 -83 13 -99 -7 -10 -14 -25 -15 -85 -10 -181 17 -200 18 -211 7 -8 -8 6 -11
49 -11 88 -1 46 -18 -50 -21 -64 -2 -81 1 -91 14 -16 23 -41 21 -72 -3 -30
-24 -100 -27 -129 -6 -24 18 -17 24 37 35 44 9 43 9 -22 10 -52 1 -70 5 -84
21 -10 11 -15 23 -11 27 4 5 12 0 18 -10 9 -17 22 -18 176 -12 214 7 292 14
292 26 0 5 -9 9 -21 9 -12 0 -18 4 -13 11 11 18 -15 27 -59 19 -23 -5 -130
-10 -237 -11 l-195 -4 0 35 0 35 55 6 55 6 -55 3 -55 3 55 7 c30 5 94 8 142 9
91 1 118 6 118 23 0 7 -55 8 -163 3 -146 -6 -164 -5 -177 10 -24 30 -1 50 64
53 57 3 79 21 29 23 -16 1 0 6 35 11 34 5 62 14 62 19 0 5 -26 9 -57 10 -32 0
-80 9 -108 18 -42 16 -50 22 -47 42 4 33 18 39 92 39 36 0 72 5 80 10 11 8 -8
10 -64 8 -65 -3 -80 0 -89 14 -9 13 -7 21 7 37 23 25 53 27 76 6 15 -14 22
-14 61 3 35 14 51 16 77 9 29 -9 36 -7 55 12 l22 22 -135 -2 c-142 -1 -158 4
-124 42 12 13 30 19 60 19 24 0 46 5 49 10 4 6 -9 10 -32 10 l-37 0 22 22 c20
20 41 24 222 39 121 10 206 22 215 29 11 9 19 9 28 2 8 -7 66 -10 162 -7 138
3 148 2 128 -12 -26 -18 -32 -48 -7 -39 9 3 38 6 66 6 41 0 51 3 55 20 6 21
25 29 20 8 -4 -21 41 -20 70 1 22 16 37 19 66 15 20 -4 37 -11 37 -15 0 -14
28 -11 33 4 3 9 7 9 17 0 29 -27 6 -32 -238 -50 -45 -3 -85 -10 -89 -16 -4 -7
21 -8 73 -3 182 15 314 28 399 38 50 6 145 12 212 14 68 1 267 12 443 24 177
12 326 19 333 17 7 -2 -8 -9 -33 -15 -40 -9 -41 -10 -14 -11 49 -2 94 10 94
24 0 8 5 15 11 17 9 3 9 10 0 26 -13 25 -29 27 -66 10 -20 -9 -31 -8 -50 2
-15 8 -40 11 -67 7 -24 -3 -50 -2 -58 3 -11 7 -8 10 13 10 15 0 27 5 27 10 0
11 -63 14 -73 4z m-380 -90 c-3 -3 -86 -8 -183 -10 -98 -2 -182 -8 -187 -13
-5 -5 -24 -4 -45 3 -36 11 -34 11 48 17 123 8 374 10 367 3z"/>
<path d="M12371 1501 c-7 -5 -10 -14 -7 -20 4 -6 3 -11 -2 -11 -6 0 -12 7 -16
15 -11 29 -36 17 -36 -17 l0 -33 52 3 c66 5 109 36 80 58 -20 15 -51 18 -71 5z"/>
<path d="M12144 1479 c-16 -17 -16 -22 -4 -29 11 -7 8 -10 -12 -10 -16 0 -28
-5 -28 -11 0 -8 21 -10 71 -5 64 7 70 6 67 -11 -3 -16 4 -18 57 -14 33 2 67 7
75 13 10 6 -3 7 -39 3 l-54 -6 5 45 6 46 -63 0 c-50 0 -66 -4 -81 -21z"/>
<path d="M12435 1328 c-21 -72 -29 -131 -21 -164 l7 -27 15 22 c9 12 26 21 42
22 25 0 25 1 -8 13 -23 8 -34 17 -31 26 2 8 6 33 9 55 2 22 8 44 13 50 12 12
12 55 -1 55 -5 0 -16 -24 -25 -52z"/>
<path d="M4550 1324 c-58 -24 -116 -49 -129 -55 -17 -7 -21 -13 -14 -20 10
-10 41 2 238 96 87 41 15 26 -95 -21z"/>
<path d="M4615 1297 c-39 -18 -114 -50 -167 -71 -54 -21 -98 -42 -98 -47 0
-14 -1 -14 164 56 84 36 158 65 163 65 6 0 16 7 23 15 21 25 -8 19 -85 -18z"/>
<path d="M11549 1301 c-2 -6 -33 -13 -69 -17 -47 -4 -61 -3 -50 5 11 8 -24 11
-128 11 -105 0 -144 -3 -146 -12 -14 -43 -14 -88 -1 -88 7 0 16 9 20 19 3 11
14 22 23 25 23 7 136 7 198 0 38 -4 53 -2 63 9 8 10 24 14 44 12 92 -11 137
-13 132 -6 -3 5 3 12 13 17 13 5 7 9 -23 14 -22 4 -47 10 -56 14 -9 4 -18 3
-20 -3z"/>
<path d="M4616 1204 c-59 -31 -158 -76 -220 -101 -214 -87 -323 -143 -278
-143 9 0 369 160 525 233 53 25 97 50 97 56 0 17 -7 14 -124 -45z"/>
<path d="M10236 1209 c-161 -13 -152 -19 24 -16 101 1 162 6 175 14 17 11 12
12 -35 11 -30 0 -104 -5 -164 -9z"/>
<path d="M4330 1122 c-58 -26 -114 -54 -125 -60 -45 -29 32 1 140 53 137 66
127 71 -15 7z"/>
<path d="M8721 1103 c0 -10 4 -27 9 -38 7 -17 9 -15 9 12 1 17 -3 35 -9 38 -5
3 -10 -2 -9 -12z"/>
<path d="M12383 1065 c5 -53 11 -62 30 -47 8 7 17 9 20 5 11 -10 8 47 -3 68
-6 10 -20 19 -32 19 -19 0 -20 -4 -15 -45z"/>
<path d="M11515 1093 c-75 -4 -105 -11 -105 -23 0 -21 190 -4 198 18 2 7 -4
11 -15 10 -10 -1 -45 -3 -78 -5z"/>
<path d="M10535 1068 c-104 -5 -191 -11 -194 -14 -2 -2 -1 -7 2 -10 8 -9 386
16 412 27 24 9 44 10 -220 -3z"/>
<path d="M11298 1073 c-16 -2 -28 -9 -28 -15 0 -12 70 -2 85 13 9 9 -5 10 -57
2z"/>
<path d="M2301 1061 c-8 -5 60 -8 168 -8 99 1 181 5 181 9 0 11 -332 10 -349
-1z"/>
<path d="M11035 1063 c-90 -6 -135 -14 -135 -25 0 -6 10 -8 24 -4 13 3 45 -1
71 -9 27 -8 52 -12 57 -9 5 3 43 11 86 17 42 7 77 17 77 22 0 10 -90 14 -180
8z"/>
<path d="M9970 1036 c0 -11 17 -13 83 -11 114 3 117 4 117 15 0 6 -40 10 -100
10 -79 0 -100 -3 -100 -14z"/>
<path d="M10760 1043 c-120 -8 -173 -16 -159 -22 7 -4 52 -4 99 0 47 4 102 8
123 8 20 1 37 6 37 11 0 6 -12 9 -27 8 -16 -1 -48 -3 -73 -5z"/>
<path d="M11613 995 c11 -7 25 -11 33 -8 25 10 15 23 -18 23 -31 -1 -32 -2
-15 -15z"/>
<path d="M8198 953 c12 -2 32 -2 45 0 12 2 2 4 -23 4 -25 0 -35 -2 -22 -4z"/>
<path d="M1770 941 c0 -8 80 -11 283 -12 155 0 325 -4 377 -8 103 -8 143 -3
95 12 -47 14 -755 22 -755 8z"/>
<path d="M4130 930 c-24 -15 -7 -18 25 -4 23 10 25 13 10 13 -11 1 -27 -3 -35
-9z"/>
<path d="M10177 929 c-125 -7 -148 -12 -134 -26 9 -8 364 16 392 27 25 11 -78
10 -258 -1z"/>
<path d="M10513 933 c9 -2 23 -2 30 0 6 3 -1 5 -18 5 -16 0 -22 -2 -12 -5z"/>
<path d="M11520 904 c-8 -1 -32 -5 -53 -9 -21 -3 -35 -10 -32 -15 3 -4 14 -6
25 -3 10 3 35 -5 55 -17 l36 -22 34 23 c43 29 44 39 6 39 -16 0 -35 2 -43 4
-7 2 -20 2 -28 0z"/>
<path d="M4145 885 c-16 -8 -23 -14 -14 -15 8 0 24 7 35 15 23 18 18 18 -21 0z"/>
<path d="M7923 863 c20 -2 54 -2 75 0 20 2 3 4 -38 4 -41 0 -58 -2 -37 -4z"/>
<path d="M10985 864 c-11 -2 -92 -8 -180 -13 -355 -22 -500 -34 -509 -42 -15
-14 135 -10 279 6 72 8 202 17 290 20 200 7 267 14 260 26 -6 8 -96 10 -140 3z"/>
<path d="M1001 856 c7 -8 98 -10 105 -3 4 4 -19 7 -51 7 -32 0 -56 -2 -54 -4z"/>
<path d="M1405 830 c46 -12 193 -12 175 0 -8 5 -58 9 -110 9 -65 -1 -86 -4
-65 -9z"/>
<path d="M11560 815 c0 -8 7 -15 15 -15 8 0 15 7 15 15 0 8 -7 15 -15 15 -8 0
-15 -7 -15 -15z"/>
<path d="M10780 810 c-13 -9 -13 -10 0 -9 8 0 24 4 35 9 l20 9 -20 0 c-11 0
-27 -4 -35 -9z"/>
<path d="M10311 779 c-52 -10 -60 -16 -36 -25 23 -9 165 9 168 21 3 13 -76 16
-132 4z"/>
<path d="M10498 783 c12 -2 30 -2 40 0 9 3 -1 5 -23 4 -22 0 -30 -2 -17 -4z"/>
<path d="M12295 777 c-178 -10 -205 -14 -205 -32 0 -8 8 -15 19 -15 10 0 24
-7 32 -16 11 -14 14 -14 28 4 13 16 32 21 100 24 74 4 85 3 102 -15 11 -12 19
-15 19 -9 0 8 11 12 28 10 22 -2 28 1 30 21 2 13 0 26 -5 30 -4 3 -71 3 -148
-2z"/>
<path d="M2215 769 c-11 -17 -3 -18 55 -4 l55 13 -52 1 c-28 1 -55 -4 -58 -10z"/>
<path d="M11450 748 c-41 -4 -96 -8 -121 -7 -51 0 -99 -15 -99 -31 0 -11 123
-7 153 5 10 4 32 3 50 -3 25 -8 27 -10 10 -11 -12 -1 -25 -6 -29 -13 -5 -8 11
-10 64 -5 55 4 73 2 83 -9 15 -18 38 -18 45 1 4 10 20 15 48 15 50 0 88 19 41
21 l-30 1 35 11 c32 10 33 11 10 15 -13 2 -59 2 -102 0 -46 -2 -79 1 -80 7 -2
6 -30 7 -78 3z"/>
<path d="M12038 746 c-23 -17 -23 -26 1 -26 21 0 45 23 34 33 -9 10 -15 8 -35
-7z"/>
<path d="M11763 736 c3 -7 0 -19 -6 -26 -10 -10 1 -11 52 -6 36 3 68 11 72 18
5 8 15 8 37 -1 26 -11 34 -10 56 4 14 10 26 19 26 21 0 2 -54 4 -121 4 -99 0
-120 -3 -116 -14z"/>
<path d="M7895 720 c-10 -17 22 -23 83 -16 65 7 372 -10 417 -23 26 -8 22 -9
-30 -11 -51 -1 -56 -3 -35 -11 36 -15 147 -6 166 13 15 15 12 17 -37 28 -110
25 -551 40 -564 20z"/>
<path d="M12220 690 c0 -24 3 -25 52 -25 32 0 53 5 55 13 3 6 0 12 -6 12 -18
0 -13 18 7 23 9 3 -11 5 -45 4 -60 -2 -63 -3 -63 -27z"/>
<path d="M12550 704 c0 -9 7 -14 17 -12 25 5 28 28 4 28 -12 0 -21 -6 -21 -16z"/>
<path d="M288 703 c-167 -2 -268 -7 -268 -13 0 -6 78 -10 208 -10 228 0 372 8
372 21 0 5 -10 8 -22 7 -13 -2 -143 -4 -290 -5z"/>
<path d="M11755 680 c-11 -5 -15 -9 -10 -10 25 -5 -46 -18 -97 -19 -55 -1 -83
-16 -59 -31 7 -4 33 -3 59 1 56 9 291 29 345 29 21 0 37 5 37 11 0 9 -28 10
-100 6 -55 -3 -100 -3 -100 -1 0 3 10 9 23 14 17 7 12 9 -28 9 -27 0 -59 -4
-70 -9z"/>
<path d="M7925 671 c-29 -12 133 -21 248 -14 54 3 100 10 103 14 6 11 -324 11
-351 0z"/>
<path d="M4445 650 c-4 -6 5 -10 20 -10 15 0 24 4 20 10 -3 6 -12 10 -20 10
-8 0 -17 -4 -20 -10z"/>
<path d="M11322 638 c-9 -4 -102 -8 -207 -9 -349 -2 -489 -8 -511 -19 -16 -9
-27 -9 -42 -1 -29 16 -71 14 -88 -4 -17 -17 -39 -21 -29 -5 8 13 -162 12 -190
-1 -14 -6 -1 -7 39 -3 34 3 56 2 53 -3 -3 -5 -82 -15 -175 -23 -149 -11 -172
-11 -191 2 -25 18 -71 12 -71 -8 0 -19 -54 -18 -70 1 -19 22 -46 18 -64 -10
-15 -23 -15 -25 3 -34 11 -6 39 -11 63 -12 89 -2 545 21 623 32 184 24 237 29
375 34 80 3 206 9 280 15 280 20 425 33 429 36 2 2 1 7 -3 11 -9 9 -202 10
-224 1z"/>
<path d="M265 629 c-82 -4 -151 -7 -152 -8 -2 0 -3 -6 -3 -12 0 -6 8 -8 19 -4
11 3 69 6 130 7 107 0 186 9 166 18 -6 3 -77 2 -160 -1z"/>
<path d="M4235 610 c3 -5 22 -10 41 -10 21 0 33 4 29 10 -3 6 -22 10 -41 10
-21 0 -33 -4 -29 -10z"/>
<path d="M4340 609 c0 -13 30 -16 140 -18 67 -2 101 1 95 7 -12 12 -235 22
-235 11z"/>
<path d="M12030 600 c-46 -5 -17 -7 100 -8 100 0 157 3 145 8 -23 10 -148 10
-245 0z"/>
<path d="M12690 600 c20 -13 93 -13 85 0 -3 6 -27 10 -53 10 -34 0 -43 -3 -32
-10z"/>
<path d="M4065 571 c-6 -11 197 -26 221 -17 9 4 15 9 12 11 -9 9 -227 14 -233
6z"/>
<path d="M4335 560 c-34 -12 99 -30 223 -30 121 0 152 15 50 24 -122 10 -253
13 -273 6z"/>
<path d="M400 551 c-59 -6 -30 -8 130 -11 113 -3 207 -4 209 -2 29 17 -193 26
-339 13z"/>
<path d="M765 542 c15 -16 325 -28 325 -13 0 6 -17 11 -43 11 -24 0 -100 3
-168 6 -87 5 -121 3 -114 -4z"/>
<path d="M1138 529 c-18 -12 56 -19 262 -25 232 -8 502 4 415 17 -61 10 -663
16 -677 8z"/>
<path d="M3960 529 c0 -12 62 -19 158 -19 59 0 92 4 87 9 -11 10 -245 20 -245
10z"/>
<path d="M11780 524 c-14 -1 -118 -8 -232 -14 -210 -12 -327 -27 -223 -29 84
-1 645 36 652 42 6 7 -144 7 -197 1z"/>
<path d="M11100 483 c-177 -6 -528 -24 -552 -29 -16 -3 -28 -9 -28 -14 0 -5
51 -6 113 -4 156 7 550 34 554 38 8 8 -25 11 -87 9z"/>
<path d="M4085 469 c53 -11 209 -10 175 1 -14 4 -68 8 -120 8 -76 0 -87 -2
-55 -9z"/>
<path d="M4440 460 c36 -4 101 -8 145 -7 75 0 77 0 30 7 -27 5 -93 8 -145 8
-94 -1 -94 -1 -30 -8z"/>
<path d="M77 453 c-53 -3 -67 -7 -67 -20 0 -12 7 -14 31 -9 18 3 144 9 281 13
137 3 251 10 254 15 5 8 -351 8 -499 1z"/>
<path d="M4039 430 c13 -6 98 -12 190 -15 120 -3 148 -2 101 5 -111 14 -318
22 -291 10z"/>
<path d="M11560 429 c-221 -13 -208 -17 43 -15 160 2 231 6 239 14 14 14 -49
14 -282 1z"/>
<path d="M1540 421 c0 -10 677 -27 687 -17 4 3 4 8 2 10 -10 8 -689 16 -689 7z"/>
<path d="M3953 394 c8 -8 117 -19 296 -30 81 -5 103 -4 99 6 -2 8 -29 14 -73
16 -39 1 -128 6 -200 9 -71 4 -126 3 -122 -1z"/>
<path d="M1295 381 c-83 -5 -93 -7 -60 -13 56 -11 763 -9 745 1 -19 11 -551
20 -685 12z"/>
<path d="M2040 370 c-10 -6 30 -9 120 -8 107 1 124 2 80 8 -80 11 -183 11
-200 0z"/>
<path d="M11795 359 c-77 -3 -216 -7 -310 -8 -163 -2 -237 -11 -189 -22 21 -6
502 6 702 17 67 3 122 10 122 15 0 10 -109 9 -325 -2z"/>
<path d="M425 339 c-2 -3 23 -11 56 -18 41 -10 111 -12 234 -9 155 4 198 9
184 22 -6 6 -471 12 -474 5z"/>
<path d="M3995 340 c99 -11 223 -15 230 -9 8 8 -134 19 -224 18 l-76 -2 70 -7z"/>
<path d="M955 330 c-4 -7 104 -9 317 -8 221 1 296 3 238 9 -131 11 -548 11
-555 -1z"/>
<path d="M1660 329 c-99 -12 4 -18 427 -23 425 -6 474 -4 448 22 -7 8 -812 9
-875 1z"/>
<path d="M4437 330 c13 -14 128 -28 163 -20 41 10 8 19 -86 26 -71 5 -87 4
-77 -6z"/>
<path d="M4685 320 c-4 -6 9 -10 32 -10 28 0 34 3 23 10 -20 13 -47 13 -55 0z"/>
<path d="M2575 310 c3 -5 27 -9 53 -9 42 1 44 2 17 9 -45 11 -77 11 -70 0z"/>
<path d="M3885 312 c15 -16 278 -35 350 -26 l60 8 -45 7 c-88 14 -376 22 -365
11z"/>
<path d="M7927 313 c-26 -2 -45 -8 -42 -14 8 -12 262 -12 269 0 12 19 -84 25
-227 14z"/>
<path d="M8228 303 c17 -2 47 -2 65 0 17 2 3 4 -33 4 -36 0 -50 -2 -32 -4z"/>
<path d="M4464 289 c-8 -13 11 -17 109 -22 48 -3 90 -1 93 4 8 13 -11 17 -109
22 -48 3 -90 1 -93 -4z"/>
<path d="M873 283 c-40 -2 -73 -8 -73 -12 0 -11 700 -25 784 -16 174 19 -4 33
-399 32 -132 0 -273 -2 -312 -4z"/>
<path d="M4370 210 c-8 -5 -10 -10 -5 -10 6 0 17 5 25 10 8 5 11 10 5 10 -5 0
-17 -5 -25 -10z"/>
<path d="M8290 158 c-135 -4 -342 -12 -460 -17 l-215 -8 194 -1 c223 -2 251
-18 41 -24 -109 -2 -140 -6 -160 -20 -21 -15 -48 -18 -187 -18 -90 0 -163 -4
-163 -9 0 -17 27 -19 170 -10 80 4 166 8 193 8 35 1 47 5 47 16 0 13 24 15
153 16 83 0 170 4 192 8 l40 9 -35 1 c-19 1 -40 5 -47 9 -6 4 73 8 175 8 103
1 234 7 291 13 57 6 174 11 261 11 95 0 161 4 165 10 7 12 -289 11 -655 -2z"/>
</g>
</svg>
